# xmcd
#
# Track frame offsets:
#	150
#	7880
#	16884
#	30676
#	42141
#	53760
#	63168
#	75332
#	87096
#	99707
#	110361
#	122488
#	136257
#	148721
#	163215
#	173708
#	185445
#	194905
#	217118
#	232111
#	246007
#	259401
#	274202
#	290273
#	304459
#	316247
#	329351
#	344060
#
# Disc length: 4818 seconds
#
# Revision: 1
# Processed by: cddbd v1.5.2PL0 Copyright (c) Steve Scherf et al.
# Submitted via: audiograbber 1.83.01
#
DISCID=9b12d01c
DTITLE=Dolly Parton - A Discography - All The Recorded Hits [CD 2)(1972-1979)
DYEAR=2000
DGENRE=Country
TTITLE0=Washday Blues
TTITLE1=Together Always (With Porter Wagoner)
TTITLE2=My Tennessee Mountain Home
TTITLE3=We Found It (With Porter Wagoner)
TTITLE4=Traveling Man
TTITLE5=If Teardrops Were Pennies (With Porter Wagoner)
TTITLE6=Jolene
TTITLE7=I Will Always Love You
TTITLE8=Please Don't Stop Loving Me (With Porter Wagoner)
TTITLE9=Love Is Like A Butterfly
TTITLE10=The Bargain Store
TTITLE11=The Seeker
TTITLE12=Say Forever You'll Be Mine (With Porter Wagoner)
TTITLE13=We Used To
TTITLE14=Hey Lucky Lady
TTITLE15=Is Forever Longer Than Always (With Porter Wagoner)
TTITLE16=All I Can Do
TTITLE17=Light Of A Clear Blue Morning
TTITLE18=It's All Wrong, But It's All Right
TTITLE19=Two Doors Down
TTITLE20=Here You Come Again
TTITLE21=I Never Will Marry (Linda Ronstadt With Dolly Parton)
TTITLE22=Heartbreaker
TTITLE23=I Really Got The Feeling
TTITLE24=Baby I'm Burnin'
TTITLE25=You're The Only One
TTITLE26=Sweet Summer Lovin'
TTITLE27=Great Balls Of Fire
EXTD=
EXTT0=
EXTT1=
EXTT2=
EXTT3=
EXTT4=
EXTT5=
EXTT6=
EXTT7=
EXTT8=
EXTT9=
EXTT10=
EXTT11=
EXTT12=
EXTT13=
EXTT14=
EXTT15=
EXTT16=
EXTT17=
EXTT18=
EXTT19=
EXTT20=
EXTT21=
EXTT22=
EXTT23=
EXTT24=
EXTT25=
EXTT26=
EXTT27=
PLAYORDER=
